<svg width="379" height="52" viewBox="0 0 379 52" fill="none" xmlns="http://www.w3.org/2000/svg">
<path d="M90.85 35.7H83.95V48H75.85V11H90.85C98.4 11 103.45 15.95 103.45 23.35C103.45 30.75 98.4 35.7 90.85 35.7ZM89.05 18.2H83.95V28.5H89.05C92.95 28.5 94.9 26.8 94.9 23.35C94.9 19.9 92.95 18.2 89.05 18.2Z" fill="black"/>
<path d="M124.815 23V30.25H122.365C117.965 30.25 115.315 32.2 115.315 37.15V48H107.615V23.05H114.865L115.265 26.75C116.315 24.3 118.515 22.65 121.865 22.65C122.765 22.65 123.765 22.75 124.815 23Z" fill="black"/>
<path d="M132.509 19.1C130.059 19.1 128.109 17.15 128.109 14.7C128.109 12.25 130.059 10.35 132.509 10.35C134.909 10.35 136.859 12.25 136.859 14.7C136.859 17.15 134.909 19.1 132.509 19.1ZM128.709 48V23H136.409V48H128.709Z" fill="black"/>
<path d="M149.885 48H142.185V23H149.385L149.885 25.6C151.135 23.85 153.585 22.2 157.185 22.2C160.935 22.2 163.335 23.95 164.785 26.6C166.085 23.95 169.035 22.2 172.635 22.2C179.085 22.2 182.285 25.95 182.285 31.65V48H174.585V33.8C174.585 30.65 172.935 29.15 170.485 29.15C168.285 29.15 166.085 30.35 166.085 34.6V48H158.385V33.8C158.385 30.7 156.785 29.2 154.335 29.2C152.135 29.2 149.885 30.4 149.885 34.6V48Z" fill="black"/>
<path d="M199.391 48.65C191.841 48.65 186.441 43.15 186.441 35.45C186.441 27.65 191.691 22.2 199.241 22.2C207.091 22.2 211.991 27.35 211.991 35.5V37.45L193.841 37.55C194.291 40.85 196.141 42.4 199.541 42.4C202.441 42.4 204.491 41.35 205.041 39.55H212.091C211.191 45.1 206.241 48.65 199.391 48.65ZM199.291 28.45C196.241 28.45 194.541 29.8 193.941 32.8H204.341C204.341 30.15 202.391 28.45 199.291 28.45Z" fill="black"/>
<path d="M215.45 21.75C215.45 15.05 221.1 10.3 229.05 10.3C237 10.3 242 14.7 242 21.7H233.95C233.95 19.1 232 17.5 228.95 17.5C225.65 17.5 223.55 19 223.55 21.45C223.55 23.7 224.7 24.8 227.3 25.35L232.85 26.5C239.45 27.85 242.6 31 242.6 36.85C242.6 44 237 48.65 228.5 48.65C220.25 48.65 214.9 44.2 214.9 37.25H222.95C222.95 39.95 224.95 41.45 228.55 41.45C232.2 41.45 234.5 40 234.5 37.65C234.5 35.6 233.55 34.55 231.1 34.05L225.45 32.9C218.85 31.55 215.45 27.8 215.45 21.75Z" fill="black"/>
<path d="M245.669 35.4C245.669 27.7 250.969 22.2 258.469 22.2C265.869 22.2 270.769 26.25 271.269 32.8H263.519C262.969 30.3 261.419 29.1 258.769 29.1C255.519 29.1 253.419 31.55 253.419 35.4C253.419 39.4 255.369 41.75 258.669 41.75C261.369 41.75 263.019 40.5 263.519 38.05H271.269C270.769 44.35 265.669 48.65 258.669 48.65C250.769 48.65 245.669 43.4 245.669 35.4Z" fill="black"/>
<path d="M292.686 23V30.25H290.236C285.836 30.25 283.186 32.2 283.186 37.15V48H275.486V23.05H282.736L283.136 26.75C284.186 24.3 286.386 22.65 289.736 22.65C290.636 22.65 291.636 22.75 292.686 23Z" fill="black"/>
<path d="M307.447 48.65C299.897 48.65 294.497 43.15 294.497 35.45C294.497 27.65 299.747 22.2 307.297 22.2C315.147 22.2 320.047 27.35 320.047 35.5V37.45L301.897 37.55C302.347 40.85 304.197 42.4 307.597 42.4C310.497 42.4 312.547 41.35 313.097 39.55H320.147C319.247 45.1 314.297 48.65 307.447 48.65ZM307.347 28.45C304.297 28.45 302.597 29.8 301.997 32.8H312.397C312.397 30.15 310.447 28.45 307.347 28.45Z" fill="black"/>
<path d="M336.207 48.65C328.657 48.65 323.257 43.15 323.257 35.45C323.257 27.65 328.507 22.2 336.057 22.2C343.907 22.2 348.807 27.35 348.807 35.5V37.45L330.657 37.55C331.107 40.85 332.957 42.4 336.357 42.4C339.257 42.4 341.307 41.35 341.857 39.55H348.907C348.007 45.1 343.057 48.65 336.207 48.65ZM336.107 28.45C333.057 28.45 331.357 29.8 330.757 32.8H341.157C341.157 30.15 339.207 28.45 336.107 28.45Z" fill="black"/>
<path d="M361.067 48H353.367V23H360.617L361.117 25.6C362.667 23.45 365.517 22.2 368.767 22.2C374.717 22.2 378.167 26 378.167 32.55V48H370.467V34.4C370.467 31.25 368.717 29.2 366.067 29.2C363.017 29.2 361.067 31.2 361.067 34.3V48Z" fill="black"/>
<path fill-rule="evenodd" clip-rule="evenodd" d="M34.4085 0.471475C34.5893 0.623777 34.7378 0.809607 34.8455 1.01834C34.9532 1.22708 35.018 1.45463 35.0362 1.68798C35.0544 1.92134 35.0256 2.15593 34.9515 2.37835C34.8774 2.60076 34.7594 2.80665 34.6042 2.98422L28.884 9.54397H35.7787C39.0823 9.54397 41.7479 9.54397 43.8432 9.82185C46.0182 10.1068 47.85 10.7243 49.3048 12.1517C50.7597 13.5815 51.3832 15.3817 51.678 17.5192C51.9583 19.5783 51.9583 22.198 51.9583 25.4446V35.2058C51.9583 38.4525 51.9583 41.0721 51.678 43.1312C51.3832 45.2687 50.7597 47.069 49.3048 48.4987C47.85 49.9285 46.0182 50.5412 43.8432 50.831C41.7479 51.1065 39.0823 51.1065 35.7787 51.1065H16.1796C12.876 51.1065 10.2104 51.1065 8.11517 50.831C5.94017 50.5412 4.10833 49.9285 2.6535 48.4987C1.19867 47.069 0.575167 45.2687 0.28275 43.1312C-2.98023e-08 41.0721 0 38.4525 0 35.2058V25.4446C0 22.198 -2.98023e-08 19.5783 0.28275 17.5192C0.57275 15.3817 1.20108 13.5815 2.6535 12.1517C4.10833 10.722 5.94017 10.1092 8.11517 9.82185C10.2104 9.54397 12.876 9.54397 16.1796 9.54397H23.0743L17.3517 2.98422C17.1876 2.80812 17.0612 2.60138 16.98 2.3763C16.8988 2.15123 16.8645 1.91241 16.8792 1.67405C16.8938 1.43569 16.957 1.20265 17.0651 0.988793C17.1732 0.774933 17.324 0.584617 17.5084 0.42916C17.6929 0.273703 17.9072 0.156278 18.1388 0.083868C18.3703 0.0114578 18.6143 -0.0144598 18.8562 0.00765583C19.0982 0.0297715 19.3331 0.0994689 19.5471 0.212604C19.7611 0.32574 19.9497 0.480004 20.1018 0.666225L25.9792 7.40172L31.8517 0.666225C32.0066 0.48852 32.1957 0.342572 32.4081 0.236721C32.6205 0.130871 32.8521 0.0671929 33.0895 0.0493271C33.327 0.0314614 33.5657 0.0597582 33.792 0.1326C34.0183 0.205442 34.2278 0.321401 34.4085 0.47385M37.4583 13.1088V47.5463C39.9862 47.5368 41.8712 47.4989 43.3598 47.3017C45.1337 47.0666 46.0713 46.6367 46.7407 45.9812C47.4102 45.3233 47.8452 44.4019 48.0844 42.6562C48.3285 40.8631 48.3333 38.4857 48.3333 35.0776V25.5776C48.3333 22.1695 48.3285 19.7897 48.0844 17.9966C47.8452 16.2533 47.4077 15.3318 46.7407 14.674C46.0713 14.0161 45.1337 13.5886 43.3574 13.3535C41.8712 13.1563 39.9862 13.116 37.4583 13.1088ZM33.8333 47.5487V13.1065H16.3125C12.8446 13.1065 10.4231 13.1112 8.5985 13.3511C6.82467 13.5862 5.887 14.0161 5.21758 14.6716C4.54817 15.3295 4.11317 16.251 3.87392 17.9966C3.62983 19.7873 3.625 22.1671 3.625 25.5752V35.0752C3.625 38.4834 3.62983 40.8607 3.87392 42.6562C4.11317 44.3995 4.55058 45.321 5.21758 45.9789C5.887 46.6367 6.82467 47.0642 8.60092 47.2994C10.4231 47.5392 12.8446 47.544 16.3125 47.544L33.8333 47.5487Z" fill="black"/>
<path d="M45.3125 35.0752C45.3125 34.4453 45.0579 33.8412 44.6047 33.3958C44.1515 32.9504 43.5368 32.7002 42.8958 32.7002C42.2549 32.7002 41.6402 32.9504 41.187 33.3958C40.7338 33.8412 40.4792 34.4453 40.4792 35.0752C40.4792 35.7051 40.7338 36.3092 41.187 36.7546C41.6402 37.2 42.2549 37.4502 42.8958 37.4502C43.5368 37.4502 44.1515 37.2 44.6047 36.7546C45.0579 36.3092 45.3125 35.7051 45.3125 35.0752ZM45.3125 25.5752C45.3125 24.9453 45.0579 24.3412 44.6047 23.8958C44.1515 23.4504 43.5368 23.2002 42.8958 23.2002C42.2549 23.2002 41.6402 23.4504 41.187 23.8958C40.7338 24.3412 40.4792 24.9453 40.4792 25.5752C40.4792 26.2051 40.7338 26.8092 41.187 27.2546C41.6402 27.7 42.2549 27.9502 42.8958 27.9502C43.5368 27.9502 44.1515 27.7 44.6047 27.2546C45.0579 26.8092 45.3125 26.2051 45.3125 25.5752Z" fill="black"/>
</svg>
