<svg width="52" height="52" viewBox="0 0 52 52" fill="none" xmlns="http://www.w3.org/2000/svg">
<path fill-rule="evenodd" clip-rule="evenodd" d="M34.4085 0.471475C34.5893 0.623777 34.7378 0.809607 34.8455 1.01834C34.9532 1.22708 35.018 1.45463 35.0362 1.68798C35.0544 1.92134 35.0256 2.15593 34.9515 2.37835C34.8774 2.60076 34.7594 2.80665 34.6042 2.98422L28.884 9.54397H35.7787C39.0823 9.54397 41.7479 9.54397 43.8432 9.82185C46.0182 10.1068 47.85 10.7243 49.3048 12.1517C50.7597 13.5815 51.3832 15.3817 51.678 17.5192C51.9583 19.5783 51.9583 22.198 51.9583 25.4446V35.2058C51.9583 38.4525 51.9583 41.0721 51.678 43.1312C51.3832 45.2687 50.7597 47.069 49.3048 48.4987C47.85 49.9285 46.0182 50.5412 43.8432 50.831C41.7479 51.1065 39.0823 51.1065 35.7787 51.1065H16.1796C12.876 51.1065 10.2104 51.1065 8.11517 50.831C5.94017 50.5412 4.10833 49.9285 2.6535 48.4987C1.19867 47.069 0.575167 45.2687 0.28275 43.1312C-2.98023e-08 41.0721 0 38.4525 0 35.2058V25.4446C0 22.198 -2.98023e-08 19.5783 0.28275 17.5192C0.57275 15.3817 1.20108 13.5815 2.6535 12.1517C4.10833 10.722 5.94017 10.1092 8.11517 9.82185C10.2104 9.54397 12.876 9.54397 16.1796 9.54397H23.0743L17.3517 2.98422C17.1876 2.80812 17.0612 2.60138 16.98 2.3763C16.8988 2.15123 16.8645 1.91241 16.8792 1.67405C16.8938 1.43569 16.957 1.20265 17.0651 0.988793C17.1732 0.774933 17.324 0.584617 17.5084 0.42916C17.6929 0.273703 17.9072 0.156278 18.1388 0.083868C18.3703 0.0114578 18.6143 -0.0144598 18.8562 0.00765583C19.0982 0.0297715 19.3331 0.0994689 19.5471 0.212604C19.7611 0.32574 19.9497 0.480004 20.1018 0.666225L25.9792 7.40172L31.8517 0.666225C32.0066 0.48852 32.1957 0.342572 32.4081 0.236721C32.6205 0.130871 32.8521 0.0671929 33.0895 0.0493271C33.327 0.0314614 33.5657 0.0597582 33.792 0.1326C34.0183 0.205442 34.2278 0.321401 34.4085 0.47385M37.4583 13.1088V47.5463C39.9862 47.5368 41.8712 47.4989 43.3598 47.3017C45.1337 47.0666 46.0713 46.6367 46.7407 45.9812C47.4102 45.3233 47.8452 44.4019 48.0844 42.6562C48.3285 40.8631 48.3333 38.4857 48.3333 35.0776V25.5776C48.3333 22.1695 48.3285 19.7897 48.0844 17.9966C47.8452 16.2533 47.4077 15.3318 46.7407 14.674C46.0713 14.0161 45.1337 13.5886 43.3574 13.3535C41.8712 13.1563 39.9862 13.116 37.4583 13.1088ZM33.8333 47.5487V13.1065H16.3125C12.8446 13.1065 10.4231 13.1112 8.5985 13.3511C6.82467 13.5862 5.887 14.0161 5.21758 14.6716C4.54817 15.3295 4.11317 16.251 3.87392 17.9966C3.62983 19.7873 3.625 22.1671 3.625 25.5752V35.0752C3.625 38.4834 3.62983 40.8607 3.87392 42.6562C4.11317 44.3995 4.55058 45.321 5.21758 45.9789C5.887 46.6367 6.82467 47.0642 8.60092 47.2994C10.4231 47.5392 12.8446 47.544 16.3125 47.544L33.8333 47.5487Z" fill="black"/>
<path d="M45.3125 35.0752C45.3125 34.4453 45.0579 33.8412 44.6047 33.3958C44.1515 32.9504 43.5368 32.7002 42.8958 32.7002C42.2549 32.7002 41.6402 32.9504 41.187 33.3958C40.7338 33.8412 40.4792 34.4453 40.4792 35.0752C40.4792 35.7051 40.7338 36.3092 41.187 36.7546C41.6402 37.2 42.2549 37.4502 42.8958 37.4502C43.5368 37.4502 44.1515 37.2 44.6047 36.7546C45.0579 36.3092 45.3125 35.7051 45.3125 35.0752ZM45.3125 25.5752C45.3125 24.9453 45.0579 24.3412 44.6047 23.8958C44.1515 23.4504 43.5368 23.2002 42.8958 23.2002C42.2549 23.2002 41.6402 23.4504 41.187 23.8958C40.7338 24.3412 40.4792 24.9453 40.4792 25.5752C40.4792 26.2051 40.7338 26.8092 41.187 27.2546C41.6402 27.7 42.2549 27.9502 42.8958 27.9502C43.5368 27.9502 44.1515 27.7 44.6047 27.2546C45.0579 26.8092 45.3125 26.2051 45.3125 25.5752Z" fill="black"/>
</svg>
